<svg width="26" height="26" viewBox="0 0 26 26" fill="none" xmlns="http://www.w3.org/2000/svg">
<path fill-rule="evenodd" clip-rule="evenodd" d="M13.2793 25.9258C10.7277 25.9258 9.542 25.5517 7.48085 24.0553C6.17716 25.7387 2.0487 27.0544 1.86866 24.8035C1.86866 23.1138 1.49617 21.6859 1.07402 20.1271C0.571155 18.2067 0 16.068 0 12.9691C0 5.568 6.04677 0 13.211 0C20.3815 0 25.9999 5.84235 25.9999 13.0377C26.0239 20.1218 20.3328 25.888 13.2793 25.9258ZM13.3849 6.39728C9.89582 6.21646 7.17665 8.64197 6.57442 12.4453C6.07782 15.5941 6.95933 19.4287 7.71062 19.6283C8.07062 19.7156 8.97704 18.9798 9.542 18.4124C10.4762 19.0606 11.564 19.4498 12.6958 19.5409C16.311 19.7157 19.4 16.9515 19.6427 13.3246C19.784 9.68998 17.0005 6.61147 13.3849 6.40352V6.39728Z" fill="black"/>
</svg>
