<svg width="19" height="19" viewBox="0 0 19 19" fill="none" xmlns="http://www.w3.org/2000/svg">
<path d="M17.4154 17.416H1.58203M1.58203 8.70763L4.79857 6.13471M17.4154 8.70763L10.9823 3.5618C10.5612 3.22494 10.038 3.04142 9.4987 3.04142C8.95943 3.04142 8.43622 3.22494 8.01511 3.5618L7.39603 4.05659M12.2695 4.35346V2.77013C12.2695 2.66515 12.3112 2.56447 12.3855 2.49024C12.4597 2.416 12.5604 2.3743 12.6654 2.3743H14.6445C14.7495 2.3743 14.8502 2.416 14.9244 2.49024C14.9987 2.56447 15.0404 2.66515 15.0404 2.77013V6.72846M3.16536 17.416V7.52013M15.832 7.52013V10.6868M15.832 17.416V13.8535" stroke="black" stroke-linecap="round"/>
<path d="M11.874 17.4177V13.4594C11.874 12.3399 11.874 11.7802 11.5257 11.4327C11.1789 11.0844 10.6192 11.0844 9.49902 11.0844C8.37882 11.0844 7.8199 11.0844 7.47236 11.4327M7.12402 17.4177V13.4594" stroke="black" stroke-linecap="round" stroke-linejoin="round"/>
<path d="M11.0817 7.5201C11.0817 7.94003 10.9149 8.34275 10.618 8.63969C10.321 8.93662 9.9183 9.10343 9.49837 9.10343C9.07845 9.10343 8.67572 8.93662 8.37879 8.63969C8.08185 8.34275 7.91504 7.94003 7.91504 7.5201C7.91504 7.10017 8.08185 6.69745 8.37879 6.40052C8.67572 6.10358 9.07845 5.93677 9.49837 5.93677C9.9183 5.93677 10.321 6.10358 10.618 6.40052C10.9149 6.69745 11.0817 7.10017 11.0817 7.5201Z" stroke="black"/>
</svg>
