<svg width="27" height="26" viewBox="0 0 27 26" fill="none" xmlns="http://www.w3.org/2000/svg">
<g clip-path="url(#clip0_1096_204)">
<path d="M13.5 0C6.048 0 0 5.824 0 13C0 20.176 6.048 26 13.5 26C20.952 26 27 20.176 27 13C27 5.824 20.952 0 13.5 0ZM19.764 8.84C19.5615 10.894 18.684 15.886 18.2385 18.187C18.0495 19.162 17.6715 19.487 17.3205 19.526C16.5375 19.591 15.9435 19.032 15.1875 18.551C13.9995 17.797 13.3245 17.329 12.177 16.601C10.8405 15.756 11.7045 15.288 12.474 14.534C12.6765 14.339 16.1325 11.31 16.2 11.037C16.2094 10.9957 16.2081 10.9527 16.1964 10.9119C16.1846 10.8712 16.1627 10.8338 16.1325 10.803C16.0515 10.738 15.9435 10.764 15.849 10.777C15.7275 10.803 13.8375 12.012 10.152 14.404C9.612 14.755 9.126 14.937 8.694 14.924C8.208 14.911 7.29 14.664 6.6015 14.443C5.751 14.183 5.0895 14.04 5.1435 13.585C5.1705 13.351 5.508 13.117 6.1425 12.87C10.0845 11.219 12.7035 10.127 14.013 9.607C17.766 8.099 18.5355 7.839 19.0485 7.839C19.1565 7.839 19.413 7.865 19.575 7.995C19.71 8.099 19.7505 8.242 19.764 8.346C19.7505 8.424 19.7775 8.658 19.764 8.84Z" fill="black"/>
</g>
<defs>
<clipPath id="clip0_1096_204">
<rect width="27" height="26" fill="white"/>
</clipPath>
</defs>
</svg>
