<svg width="15" height="15" viewBox="0 0 15 15" fill="none" xmlns="http://www.w3.org/2000/svg">
<path d="M7.279 0C3.2828 0 0 3.2828 0 7.27842C0 11.2746 3.2828 14.5574 7.279 14.5574C11.1389 14.5574 14.304 11.4869 14.5174 7.67746C14.5441 7.54611 14.5577 7.41245 14.558 7.27842C14.5578 7.14381 14.5442 7.00956 14.5174 6.87764C14.3028 3.0682 11.1377 0 7.279 0ZM7.279 4.06C9.08106 4.06 10.498 5.47636 10.498 7.27842C10.498 9.08048 9.08106 10.4974 7.279 10.4974C5.47694 10.4974 4.06 9.08048 4.06 7.27842C4.06 5.47636 5.47694 4.06 7.279 4.06Z" fill="#F07E00"/>
</svg>
