<svg width="26" height="26" viewBox="0 0 26 26" fill="none" xmlns="http://www.w3.org/2000/svg">
<g clip-path="url(#clip0_1096_206)">
<path d="M1.82 1.82C3.44382e-07 3.65733 0 6.59533 0 12.48V13.52C0 19.396 3.44382e-07 22.334 1.82 24.18C3.65733 26 6.59533 26 12.48 26H13.52C19.396 26 22.334 26 24.18 24.18C26 22.3427 26 19.4047 26 13.52V12.48C26 6.604 26 3.666 24.18 1.82C22.3427 3.44382e-07 19.4047 0 13.52 0H12.48C6.604 0 3.666 3.44382e-07 1.82 1.82ZM4.38533 7.91267H7.36667C7.462 12.87 9.646 14.9673 11.3793 15.4007V7.91267H14.1787V12.1853C15.886 12.0033 17.6887 10.0533 18.2953 7.904H21.086C20.8583 9.01654 20.4037 10.0702 19.7506 10.9992C19.0974 11.9282 18.2598 12.7125 17.29 13.3033C18.3725 13.8419 19.3285 14.604 20.0949 15.5391C20.8613 16.4743 21.4206 17.5614 21.736 18.7287H18.6593C18.0007 16.6747 16.354 15.08 14.1787 14.8633V18.7287H13.832C7.904 18.7287 4.524 14.6727 4.38533 7.91267Z" fill="black"/>
</g>
<defs>
<clipPath id="clip0_1096_206">
<rect width="26" height="26" fill="white"/>
</clipPath>
</defs>
</svg>
