<svg width="32" height="32" viewBox="0 0 32 32" fill="none" xmlns="http://www.w3.org/2000/svg">
<path d="M13.4866 29.0812C14.2947 29.7479 15.1374 30.3573 16 30.952C16.8645 30.3651 17.7031 29.741 18.5134 29.0812C19.864 27.9722 21.1351 26.7697 22.3174 25.4826C25.0427 22.5026 28 18.1826 28 13.3333C28 11.7574 27.6896 10.197 27.0866 8.74104C26.4835 7.28511 25.5996 5.96227 24.4853 4.84797C23.371 3.73366 22.0481 2.84975 20.5922 2.2467C19.1363 1.64364 17.5759 1.33325 16 1.33325C14.4241 1.33325 12.8637 1.64364 11.4078 2.2467C9.95186 2.84975 8.62905 3.73366 7.51474 4.84797C6.40041 5.96227 5.5165 7.28511 4.91344 8.74104C4.31039 10.197 4 11.7574 4 13.3333C4 18.1826 6.95733 22.5013 9.6827 25.4826C10.8649 26.7701 12.136 27.9718 13.4866 29.0812ZM16 17.6666C14.8507 17.6666 13.7486 17.21 12.9359 16.3974C12.1232 15.5847 11.6666 14.4825 11.6666 13.3333C11.6666 12.184 12.1232 11.0818 12.9359 10.2691C13.7486 9.45649 14.8507 8.99995 16 8.99995C17.1493 8.99995 18.2514 9.45649 19.0641 10.2691C19.8768 11.0818 20.3334 12.184 20.3334 13.3333C20.3334 14.4825 19.8768 15.5847 19.0641 16.3974C18.2514 17.21 17.1493 17.6666 16 17.6666Z" fill="#F07E00"/>
</svg>
