<svg width="23" height="23" viewBox="0 0 23 23" fill="none" xmlns="http://www.w3.org/2000/svg">
<path d="M2.10938 18.258V13.3416C2.11158 12.5971 2.40827 11.8838 2.93466 11.3575C3.46105 10.8311 4.17436 10.5344 4.91878 10.5322H17.5611C18.3055 10.5344 19.0188 10.8311 19.5452 11.3575C20.0716 11.8838 20.3683 12.5971 20.3705 13.3416V18.258M16.8588 10.5322H4.21643V5.96688C4.21782 5.50162 4.40326 5.05581 4.73225 4.72682C5.06124 4.39783 5.50705 4.21239 5.97231 4.211H16.5076C16.9728 4.21239 17.4187 4.39783 17.7476 4.72682C18.0766 5.05581 18.2621 5.50162 18.2635 5.96688V10.5322H16.8588Z" stroke="black" stroke-width="0.874038" stroke-linecap="round" stroke-linejoin="round"/>
<path d="M2.10938 18.258V17.9069C2.11019 17.6277 2.22144 17.3602 2.41884 17.1628C2.61624 16.9654 2.88374 16.8541 3.1629 16.8533H19.317C19.5962 16.8541 19.8637 16.9654 20.0611 17.1628C20.2585 17.3602 20.3697 17.6277 20.3705 17.9069V18.258M4.91878 10.5322V9.82981C4.91982 9.45758 5.06815 9.1009 5.33136 8.83769C5.59457 8.57448 5.95125 8.42615 6.32348 8.42511H9.83524C10.2075 8.42615 10.5642 8.57448 10.8274 8.83769C11.0906 9.1009 11.2389 9.45758 11.2399 9.82981M11.2399 9.82981V10.5322M11.2399 9.82981C11.241 9.45758 11.3893 9.1009 11.6525 8.83769C11.9157 8.57448 12.2724 8.42615 12.6446 8.42511H16.1564C16.5286 8.42615 16.8853 8.57448 17.1485 8.83769C17.4117 9.1009 17.5601 9.45758 17.5611 9.82981V10.5322" stroke="black" stroke-width="0.874038" stroke-linecap="round" stroke-linejoin="round"/>
</svg>
