<svg width="36" height="37" viewBox="0 0 36 37" fill="none" xmlns="http://www.w3.org/2000/svg">
<g clip-path="url(#clip0_1096_51)">
<mask id="mask0_1096_51" style="mask-type:luminance" maskUnits="userSpaceOnUse" x="0" y="0" width="36" height="37">
<path d="M35.8736 0H0.078125V36.7898H35.8736V0Z" fill="white"/>
</mask>
<g mask="url(#mask0_1096_51)">
<path d="M17.9003 36.7833H18.043C25.1502 36.7833 29.2755 36.0479 32.1977 33.1321C35.1771 30.0392 35.8652 25.7706 35.8652 18.4945V18.2887C35.8652 11.0148 35.1771 6.77483 32.1977 3.65118C29.2776 0.73549 25.1225 0 18.0451 0H17.9024C10.7953 0 6.66771 0.73549 3.74564 3.65118C0.76605 6.74418 0.078125 11.0148 0.078125 18.2887V18.4945C0.078125 25.7684 0.76605 30.0085 3.74564 33.1321C6.64004 36.0479 10.7953 36.7833 17.9003 36.7833Z" fill="black"/>
<path d="M31.6052 18.1126C31.6052 17.9725 31.4944 17.8565 31.3581 17.8499C26.4666 17.6595 23.4897 17.0182 21.407 14.8777C19.32 12.7328 18.6982 9.67088 18.5129 4.63257C18.5086 4.49249 18.3958 4.37869 18.2573 4.37869H17.6866C17.5504 4.37869 17.4375 4.49249 17.4311 4.63257C17.2458 9.66869 16.624 12.7328 14.5371 14.8777C12.4523 17.0204 9.47737 17.6595 4.58588 17.8499C4.44959 17.8543 4.33887 17.9703 4.33887 18.1126V18.6991C4.33887 18.8392 4.44959 18.9552 4.58588 18.9618C9.47737 19.1522 12.4544 19.7935 14.5371 21.934C16.6197 24.0745 17.2416 27.1278 17.429 32.1462C17.4332 32.2863 17.5461 32.4002 17.6845 32.4002H18.2573C18.3936 32.4002 18.5065 32.2863 18.5129 32.1462C18.7003 27.1278 19.3221 24.0745 21.4049 21.934C23.4897 19.7913 26.4644 19.1522 31.356 18.9618C31.4923 18.9574 31.6031 18.8414 31.6031 18.6991V18.1126H31.6052Z" fill="white"/>
</g>
</g>
<defs>
<clipPath id="clip0_1096_51">
<rect width="36" height="37" fill="white"/>
</clipPath>
</defs>
</svg>
