<svg width="32" height="32" viewBox="0 0 32 32" fill="none" xmlns="http://www.w3.org/2000/svg">
<path d="M28 16.0002C28.0001 13.4928 27.2146 11.0485 25.7542 9.01035C24.2938 6.97222 22.2315 5.44278 19.8572 4.63682C17.483 3.83086 14.9158 3.78889 12.5164 4.51677C10.117 5.24466 8.0059 6.70585 6.47956 8.69511C4.95323 10.6844 4.08835 13.1018 4.00641 15.6078C3.92447 18.1138 4.62957 20.5826 6.0227 22.6673C7.41582 24.7521 9.42698 26.348 11.7737 27.2311C14.1204 28.1142 16.6848 28.24 19.1067 27.5909" stroke="#F07E00" stroke-width="2.5" stroke-linecap="round"/>
<path d="M16.0003 21.3332C18.9458 21.3332 21.3337 18.9453 21.3337 15.9998C21.3337 13.0543 18.9458 10.6665 16.0003 10.6665C13.0548 10.6665 10.667 13.0543 10.667 15.9998C10.667 18.9453 13.0548 21.3332 16.0003 21.3332Z" stroke="#F07E00" stroke-width="2.5"/>
<path d="M21.333 12V18C21.333 18.8841 21.6842 19.7319 22.3093 20.357C22.9344 20.9821 23.7823 21.3333 24.6663 21.3333C25.5504 21.3333 26.3983 20.9821 27.0234 20.357C27.6485 19.7319 27.9997 18.8841 27.9997 18V16" stroke="#F07E00" stroke-width="2.5" stroke-linecap="round"/>
</svg>
