<svg width="13" height="14" viewBox="0 0 13 14" fill="none" xmlns="http://www.w3.org/2000/svg">
<path d="M2.05381 13.6926V-3.04966e-05H7.17878C8.91318 -3.04966e-05 10.2759 0.391188 11.267 1.17363C12.2711 1.95606 12.7732 3.07756 12.7732 4.53811C12.7732 6.0117 12.2711 7.13971 11.267 7.92215C10.2759 8.70459 8.91318 9.09581 7.17878 9.09581H2.85581L3.50132 8.41117V13.6926H2.05381ZM3.50132 8.52854L2.85581 7.86347H7.19834C8.52848 7.86347 9.54565 7.57657 10.2498 7.00279C10.9671 6.429 11.3257 5.61396 11.3257 4.55767C11.3257 3.50138 10.9671 2.68634 10.2498 2.11255C9.54565 1.53876 8.52848 1.25187 7.19834 1.25187H2.85581L3.50132 0.567238V8.52854ZM-8.59027e-05 11.1497V10.289H7.90253V11.1497H-8.59027e-05Z" fill="black"/>
</svg>
