<svg width="36" height="36" viewBox="0 0 36 36" fill="none" xmlns="http://www.w3.org/2000/svg">
<g clip-path="url(#clip0_1096_43)">
<mask id="mask0_1096_43" style="mask-type:luminance" maskUnits="userSpaceOnUse" x="0" y="0" width="36" height="36">
<path d="M36 18C36 8.05887 27.9411 0 18 0C8.05887 0 0 8.05887 0 18C0 27.9411 8.05887 36 18 36C27.9411 36 36 27.9411 36 18Z" fill="white"/>
</mask>
<g mask="url(#mask0_1096_43)">
<path d="M22.237 17.1781H11.6013V12.9695H22.237C22.8583 12.9695 23.2902 13.0778 23.507 13.2668C23.7238 13.456 23.8581 13.8067 23.8581 14.319V15.8302C23.8581 16.37 23.7238 16.7207 23.507 16.9099C23.2902 17.0989 22.8583 17.1798 22.237 17.1798V17.1781ZM22.9667 9.00161H7.09082V27H11.6013V21.1444H19.9138L23.8581 27H28.909L24.5603 21.1169C26.1635 20.8793 26.8835 20.388 27.4772 19.5782C28.0709 18.7685 28.3687 17.4739 28.3687 15.7462V14.3966C28.3687 13.3719 28.2602 12.5622 28.0709 11.9416C27.8816 11.3209 27.5582 10.7811 27.0986 10.2962C26.6133 9.83722 26.0729 9.51395 25.4242 9.29738C24.7754 9.1083 23.9649 9 22.9667 9V9.00161Z" fill="black"/>
<path d="M54 9.53674e-06C54 9.94113 45.9412 18 36 18C33.9788 18 32.0356 17.6669 30.222 17.0526C30.2607 16.6248 30.2779 16.1875 30.2779 15.7462V14.3966C30.2779 13.2507 30.1582 12.2407 29.8972 11.3846C29.6155 10.4615 29.1327 9.66704 28.4845 8.98309L28.4485 8.94513L28.4105 8.90918C27.72 8.25603 26.9371 7.78977 26.0288 7.48653L25.9939 7.47488L25.9585 7.46457C25.0939 7.21255 24.0957 7.09091 22.9668 7.09091H21.0577V7.09252H19.4512C18.5172 4.9161 18 2.51846 18 9.53674e-06C18 -9.94113 26.0589 -18 36 -18C45.9412 -18 54 -9.94113 54 9.53674e-06Z" fill="black"/>
</g>
<path d="M18 2.23456C26.9847 2.23456 34.334 9.25794 34.334 18.0002C34.3339 26.7423 26.9847 33.7658 18 33.7658C9.01547 33.7656 1.6671 26.7422 1.66699 18.0002C1.66699 9.25805 9.0154 2.23473 18 2.23456Z" stroke="black" stroke-width="2"/>
</g>
<defs>
<clipPath id="clip0_1096_43">
<rect width="36" height="36" fill="white"/>
</clipPath>
</defs>
</svg>
