<svg width="21" height="21" viewBox="0 0 21 21" fill="none" xmlns="http://www.w3.org/2000/svg">
<path d="M17.4815 11.4949V14.1483C17.4815 15.0865 17.1307 15.9864 16.5063 16.6499C15.8819 17.3133 15.035 17.686 14.1519 17.686H5.82771C4.94463 17.686 4.09772 17.3133 3.47328 16.6499C2.84885 15.9864 2.49805 15.0865 2.49805 14.1483V12.0256C2.49805 11.8849 2.55067 11.7499 2.64433 11.6504C2.738 11.5509 2.86503 11.4949 2.9975 11.4949H17.4815ZM17.4815 11.4949V6.18828C17.4815 5.25001 17.1307 4.35016 16.5063 3.6867C15.8819 3.02324 15.035 2.65051 14.1519 2.65051H9.9898M13.3195 17.686L14.1519 19.4549M6.66013 17.686L5.82771 19.4549" stroke="black" stroke-width="0.874038" stroke-linecap="round" stroke-linejoin="round"/>
<path d="M12.8227 7.07273H7.16224C6.88671 7.07273 6.66612 6.8357 6.69609 6.54383C6.81762 5.37017 7.38117 2.65051 9.99246 2.65051C12.6038 2.65051 13.1673 5.37017 13.2888 6.54383C13.3188 6.8357 13.0982 7.07273 12.8227 7.07273Z" stroke="black" stroke-width="0.874038" stroke-linecap="round" stroke-linejoin="round"/>
</svg>
