<svg width="32" height="33" viewBox="0 0 32 33" fill="none" xmlns="http://www.w3.org/2000/svg">
<path d="M20.7424 19.9957L20.1358 20.6186C20.1358 20.6186 18.6918 22.0981 14.7518 18.0583C10.8118 14.0186 12.2558 12.5391 12.2558 12.5391L12.6371 12.1458C13.5798 11.1806 13.6691 9.62961 12.8464 8.4966L11.1664 6.18247C10.1478 4.77997 8.18114 4.59435 7.01445 5.7906L4.92114 7.9356C4.34381 8.5296 3.95714 9.29685 4.00381 10.1493C4.12381 12.3315 5.08114 17.0243 10.4198 22.4996C16.0824 28.3048 21.3958 28.5358 23.5678 28.3268C24.2558 28.2608 24.8531 27.9006 25.3344 27.4056L27.2278 25.4641C28.5078 24.1537 28.1478 21.9056 26.5105 20.9885L23.9638 19.5598C22.8891 18.959 21.5824 19.135 20.7424 19.9957Z" fill="#F07E00"/>
</svg>
