<?xml version="1.0" encoding="UTF-8" standalone="no"?>
<!DOCTYPE svg PUBLIC "-//W3C//DTD SVG 1.1//EN" "http://www.w3.org/Graphics/SVG/1.1/DTD/svg11.dtd">
<!-- Created with Vectornator (http://vectornator.io/) -->
<svg height="512.0px" stroke-miterlimit="10" style="fill-rule:nonzero;clip-rule:evenodd;stroke-linecap:round;stroke-linejoin:round;" version="1.1" viewBox="0 0 512 512" width="512.0px" xml:space="preserve" xmlns="http://www.w3.org/2000/svg" xmlns:xlink="http://www.w3.org/1999/xlink">
<defs/>
<g id="Слой-1">
<g opacity="1">
<path d="M258.171 126.004L303.536 142.966L303.536 264.296L258.171 264.296L258.171 126.004Z" fill="#b2b2b2" fill-rule="nonzero" opacity="1" stroke="none"/>
<path d="M307.691 145.857L330.504 153.144L330.504 264.296L307.691 264.296L307.691 145.857Z" fill="#9a989a" fill-rule="nonzero" opacity="1" stroke="none"/>
<path d="M334.518 155.496L347.279 160.316L347.279 264.296L334.518 264.296L334.518 155.496Z" fill="#847c7b" fill-rule="nonzero" opacity="1" stroke="none"/>
<path d="M164.721 160.147L253.814 126.004L253.972 264.296L164.721 264.296L164.721 160.147Z" fill="#cccccc" fill-rule="nonzero" opacity="1" stroke="none"/>
</g>
<g opacity="1">
<path d="M335.675 300.503L309.019 326.784L318.862 326.784L327.769 326.784L353.019 326.784L353.019 331.659L367.394 331.659L367.394 326.784L370.862 326.784L370.862 317.972L367.394 317.972L367.394 309.253L353.019 309.253L353.019 317.972L336.3 317.972L353.237 300.503L335.675 300.503Z" fill="#e5e5e5" fill-rule="nonzero" opacity="1" stroke="none"/>
<path d="M92.2687 300.565C92.2687 300.565 88.6678 300.85 85.8937 302.378C83.1196 303.905 81.175 306.659 81.175 306.659L74.425 321.128L69.55 321.128L69.55 335.347L83.6437 335.222L83.6437 332.222L124.425 332.222L124.425 335.347L138.769 335.347L138.769 321.128L134.894 321.128L134.769 300.565L92.2687 300.565ZM109.55 311.159C115.458 311.149 121.019 311.253 121.019 311.253L121.019 320.972L90.2062 320.972C90.2062 320.972 93.2788 312.523 96.0187 311.69C97.3887 311.274 103.642 311.169 109.55 311.159Z" fill="#e5e5e5" fill-rule="nonzero" opacity="1" stroke="none"/>
<path d="M164.489 300.565C155.792 300.565 148.739 307.619 148.739 316.315C148.739 325.012 155.792 332.065 164.489 332.065L197.301 332.065C205.998 332.065 213.051 325.012 213.051 316.315C213.051 307.618 205.998 300.565 197.301 300.565L164.489 300.565ZM167.426 311.972L194.333 311.972C196.736 311.972 198.708 313.912 198.708 316.315C198.708 318.718 196.736 320.659 194.333 320.659L167.426 320.659C165.023 320.659 163.083 318.718 163.083 316.315C163.083 313.912 165.023 311.972 167.426 311.972Z" fill="#e5e5e5" fill-rule="nonzero" opacity="1" stroke="none"/>
<path d="M238.227 331.673L224.172 331.596L224.172 300.507L243.116 300.507L260.799 321.666L278.061 300.565L297.846 300.507L297.846 331.673L283.757 331.673L283.757 313.645L268.858 331.673L252.265 331.673L238.227 314.562L238.227 331.673Z" fill="#e5e5e5" fill-rule="nonzero" opacity="1" stroke="none"/>
<path d="M384.159 308.125L384.159 300.503L433.287 300.503C433.287 300.503 442.451 301.84 442.45 310.39C442.449 318.939 433.287 319.801 433.287 319.801L398.125 320.358C398.125 320.358 396.758 320.358 396.612 321.29C396.467 322.222 396.612 323.797 396.612 323.797L440.313 323.797L440.313 331.659L382.223 331.659L382.763 321.29C382.763 321.29 383.195 317.183 386.185 314.612C389.174 312.042 392.596 312.042 392.596 312.042L427.266 311.964C427.266 311.964 427.912 311.686 427.912 310.016C427.912 308.346 426.959 308.125 426.959 308.125L384.159 308.125Z" fill="#e5e5e5" fill-rule="nonzero" opacity="1" stroke="none"/>
</g>
<g opacity="1">
<path d="M49.7746 355.752L49.7746 374.868L44.7397 374.868L44.7397 359.62L36.778 359.62L36.778 374.868L31.7431 374.868L31.7431 355.752L49.7746 355.752Z" fill="#e5e5e5" fill-rule="nonzero" opacity="1" stroke="none"/>
<path d="M64.6336 355.384C67.3625 355.384 69.5627 356.298 71.2342 358.126C72.9057 359.955 73.7414 362.336 73.7414 365.269C73.7414 367.193 73.3491 368.912 72.5646 370.427C71.78 371.942 70.6645 373.122 69.2182 373.968C67.7719 374.814 66.1345 375.237 64.3061 375.237C62.8189 375.237 61.3248 374.861 59.8239 374.111L59.8239 384.508L54.789 384.508L54.789 355.752L59.7829 355.752L59.7829 356.98C61.2975 355.916 62.9144 355.384 64.6336 355.384ZM59.8239 370.427C61.0792 371.15 62.2526 371.512 63.3442 371.512C64.927 371.512 66.1959 370.945 67.151 369.813C68.1062 368.68 68.5837 367.22 68.5837 365.433C68.5837 363.482 68.1573 361.954 67.3045 360.848C66.4517 359.743 65.2408 359.191 63.6716 359.191C63.0849 359.191 62.5187 359.29 61.9729 359.487C61.4271 359.685 60.7108 360.105 59.8239 360.746L59.8239 370.427Z" fill="#e5e5e5" fill-rule="nonzero" opacity="1" stroke="none"/>
<path d="M87.2292 355.384C89.2213 355.384 91.0292 355.8 92.6529 356.632C94.2766 357.465 95.5319 358.631 96.4188 360.132C97.3057 361.633 97.7492 363.332 97.7492 365.228C97.7492 367.207 97.3228 368.94 96.47 370.427C95.6172 371.914 94.3619 373.088 92.7041 373.947C91.0463 374.807 89.2213 375.237 87.2292 375.237C85.2234 375.237 83.4018 374.807 81.7645 373.947C80.1271 373.088 78.882 371.914 78.0292 370.427C77.1765 368.94 76.7501 367.207 76.7501 365.228C76.7501 363.304 77.2003 361.595 78.1009 360.101C79.0014 358.607 80.2567 357.447 81.8668 356.622C83.4769 355.796 85.2643 355.384 87.2292 355.384ZM82.0305 365.228C82.0305 367.139 82.4979 368.663 83.4325 369.803C84.3672 370.942 85.6191 371.512 87.1882 371.512C88.8256 371.512 90.115 370.966 91.0565 369.874C91.998 368.783 92.4687 367.22 92.4687 365.187C92.4687 363.25 91.9946 361.752 91.0463 360.695C90.098 359.637 88.8119 359.109 87.1882 359.109C85.66 359.109 84.4184 359.668 83.4632 360.787C82.5081 361.906 82.0305 363.386 82.0305 365.228Z" fill="#e5e5e5" fill-rule="nonzero" opacity="1" stroke="none"/>
<path d="M106.55 355.752L106.55 367.541L116.988 355.752L119.669 355.752L119.669 374.868L114.901 374.868L114.901 363.55L104.381 375.073L101.781 375.073L101.781 355.752L106.55 355.752Z" fill="#e5e5e5" fill-rule="nonzero" opacity="1" stroke="none"/>
<path d="M131.192 355.384C132.898 355.384 134.331 355.599 135.49 356.028C136.65 356.458 137.523 357.042 138.11 357.778C138.697 358.515 138.99 359.375 138.99 360.357C138.99 361.394 138.632 362.315 137.916 363.12C137.199 363.925 136.248 364.457 135.061 364.717C136.384 365.044 137.435 365.627 138.212 366.467C138.99 367.306 139.379 368.305 139.379 369.465C139.379 371.362 138.594 372.805 137.025 373.794C135.456 374.783 133.218 375.278 130.312 375.278C129.057 375.278 127.795 375.138 126.526 374.858C125.257 374.578 124.288 374.234 123.619 373.825L123.619 370.038C125.762 371.184 127.911 371.757 130.067 371.757C131.363 371.757 132.386 371.539 133.137 371.102C133.887 370.666 134.262 370.004 134.262 369.117C134.262 368.421 133.908 367.865 133.198 367.449C132.489 367.033 131.472 366.825 130.148 366.825L127.979 366.825L127.979 363.468L129.821 363.468C131.172 363.468 132.192 363.277 132.881 362.895C133.57 362.513 133.914 361.892 133.914 361.033C133.914 359.641 132.632 358.945 130.067 358.945C129.03 358.945 127.938 359.085 126.792 359.365C125.646 359.644 124.684 359.975 123.906 360.357L123.906 356.98C124.807 356.516 125.949 356.134 127.334 355.834C128.719 355.534 130.005 355.384 131.192 355.384Z" fill="#e5e5e5" fill-rule="nonzero" opacity="1" stroke="none"/>
<path d="M151.905 355.752C153.965 355.752 155.64 356.196 156.93 357.083C158.219 357.969 158.864 359.136 158.864 360.582C158.864 361.606 158.57 362.503 157.984 363.274C157.397 364.045 156.612 364.601 155.63 364.942C158.113 365.72 159.355 367.173 159.355 369.301C159.355 371.007 158.799 372.361 157.687 373.364C156.575 374.367 155.036 374.868 153.071 374.868L143.145 374.868L143.145 355.752L151.905 355.752ZM150.513 363.755C151.618 363.755 152.44 363.553 152.979 363.151C153.518 362.748 153.788 362.083 153.788 361.155C153.788 360.405 153.481 359.849 152.867 359.487C152.253 359.126 151.414 358.945 150.349 358.945L148.037 358.945L148.037 363.755L150.513 363.755ZM151.311 371.757C153.413 371.757 154.463 370.877 154.463 369.117C154.463 368.367 154.146 367.783 153.512 367.367C152.877 366.951 151.939 366.743 150.697 366.743L148.037 366.743L148.037 371.757L151.311 371.757Z" fill="#e5e5e5" fill-rule="nonzero" opacity="1" stroke="none"/>
<path d="M172.904 355.384C174.896 355.384 176.704 355.8 178.328 356.632C179.951 357.465 181.207 358.631 182.094 360.132C182.981 361.633 183.424 363.332 183.424 365.228C183.424 367.207 182.998 368.94 182.145 370.427C181.292 371.914 180.037 373.088 178.379 373.947C176.721 374.807 174.896 375.237 172.904 375.237C170.898 375.237 169.077 374.807 167.439 373.947C165.802 373.088 164.557 371.914 163.704 370.427C162.851 368.94 162.425 367.207 162.425 365.228C162.425 363.304 162.875 361.595 163.776 360.101C164.676 358.607 165.932 357.447 167.542 356.622C169.152 355.796 170.939 355.384 172.904 355.384ZM167.705 365.228C167.705 367.139 168.173 368.663 169.107 369.803C170.042 370.942 171.294 371.512 172.863 371.512C174.5 371.512 175.79 370.966 176.731 369.874C177.673 368.783 178.144 367.22 178.144 365.187C178.144 363.25 177.669 361.752 176.721 360.695C175.773 359.637 174.487 359.109 172.863 359.109C171.335 359.109 170.093 359.668 169.138 360.787C168.183 361.906 167.705 363.386 167.705 365.228Z" fill="#e5e5e5" fill-rule="nonzero" opacity="1" stroke="none"/>
<path d="M194.906 355.384L198.938 355.384L205.897 371.021L207.984 371.021L207.984 379.944L203.216 379.944L203.216 374.868L190.383 374.868L190.383 379.944L185.532 379.944L185.532 371.021L187.62 371.021L194.906 355.384ZM192.532 371.021L200.985 371.021L196.769 361.155L192.532 371.021Z" fill="#e5e5e5" fill-rule="nonzero" opacity="1" stroke="none"/>
<path d="M220.387 355.384C222.612 355.384 224.624 355.814 226.425 356.673L226.425 360.951C224.638 359.914 222.946 359.395 221.349 359.395C219.63 359.395 218.225 359.931 217.133 361.002C216.042 362.073 215.496 363.523 215.496 365.351C215.496 367.139 216.045 368.578 217.143 369.67C218.242 370.761 219.705 371.307 221.534 371.307C222.898 371.307 224.645 370.857 226.773 369.956L226.773 374.029C224.795 374.834 222.755 375.237 220.653 375.237C217.556 375.237 215.042 374.35 213.111 372.576C211.181 370.802 210.215 368.449 210.215 365.515C210.215 362.472 211.16 360.023 213.05 358.167C214.94 356.312 217.386 355.384 220.387 355.384Z" fill="#e5e5e5" fill-rule="nonzero" opacity="1" stroke="none"/>
<path d="M247.179 355.752L247.179 359.62L240.425 359.62L240.425 374.868L235.39 374.868L235.39 359.62L228.656 359.62L228.656 355.752L247.179 355.752Z" fill="#e5e5e5" fill-rule="nonzero" opacity="1" stroke="none"/>
<path d="M259.05 355.752C261.11 355.752 262.785 356.196 264.074 357.083C265.364 357.969 266.008 359.136 266.008 360.582C266.008 361.606 265.715 362.503 265.128 363.274C264.542 364.045 263.757 364.601 262.775 364.942C265.258 365.72 266.5 367.173 266.5 369.301C266.5 371.007 265.944 372.361 264.832 373.364C263.719 374.367 262.181 374.868 260.216 374.868L250.29 374.868L250.29 355.752L259.05 355.752ZM257.658 363.755C258.763 363.755 259.585 363.553 260.124 363.151C260.663 362.748 260.933 362.083 260.933 361.155C260.933 360.405 260.626 359.849 260.012 359.487C259.398 359.126 258.558 358.945 257.494 358.945L255.181 358.945L255.181 363.755L257.658 363.755ZM258.456 371.757C260.557 371.757 261.608 370.877 261.608 369.117C261.608 368.367 261.291 367.783 260.656 367.367C260.022 366.951 259.084 366.743 257.842 366.743L255.181 366.743L255.181 371.757L258.456 371.757Z" fill="#e5e5e5" fill-rule="nonzero" opacity="1" stroke="none"/>
<path d="M280.049 355.384C282.041 355.384 283.849 355.8 285.472 356.632C287.096 357.465 288.351 358.631 289.238 360.132C290.125 361.633 290.569 363.332 290.569 365.228C290.569 367.207 290.142 368.94 289.29 370.427C288.437 371.914 287.181 373.088 285.524 373.947C283.866 374.807 282.041 375.237 280.049 375.237C278.043 375.237 276.221 374.807 274.584 373.947C272.947 373.088 271.702 371.914 270.849 370.427C269.996 368.94 269.57 367.207 269.57 365.228C269.57 363.304 270.02 361.595 270.92 360.101C271.821 358.607 273.076 357.447 274.686 356.622C276.296 355.796 278.084 355.384 280.049 355.384ZM274.85 365.228C274.85 367.139 275.317 368.663 276.252 369.803C277.187 370.942 278.439 371.512 280.008 371.512C281.645 371.512 282.935 370.966 283.876 369.874C284.818 368.783 285.288 367.22 285.288 365.187C285.288 363.25 284.814 361.752 283.866 360.695C282.918 359.637 281.631 359.109 280.008 359.109C278.48 359.109 277.238 359.668 276.283 360.787C275.328 361.906 274.85 363.386 274.85 365.228Z" fill="#e5e5e5" fill-rule="nonzero" opacity="1" stroke="none"/>
<path d="M311.015 355.752L311.015 367.541L321.453 355.752L324.135 355.752L324.135 374.868L319.366 374.868L319.366 363.55L308.846 375.073L306.246 375.073L306.246 355.752L311.015 355.752Z" fill="#e5e5e5" fill-rule="nonzero" opacity="1" stroke="none"/>
<path d="M346.137 355.752L352.297 366.436L358.417 355.752L362.776 355.752L364.127 374.868L359.583 374.868L358.622 363.1L352.174 374.868L345.584 362.997L344.704 374.868L340.181 374.868L341.613 355.752L346.137 355.752Z" fill="#e5e5e5" fill-rule="nonzero" opacity="1" stroke="none"/>
<path d="M377.922 355.384C379.914 355.384 381.722 355.8 383.346 356.632C384.969 357.465 386.225 358.631 387.112 360.132C387.998 361.633 388.442 363.332 388.442 365.228C388.442 367.207 388.016 368.94 387.163 370.427C386.31 371.914 385.055 373.088 383.397 373.947C381.739 374.807 379.914 375.237 377.922 375.237C375.916 375.237 374.095 374.807 372.457 373.947C370.82 373.088 369.575 371.914 368.722 370.427C367.869 368.94 367.443 367.207 367.443 365.228C367.443 363.304 367.893 361.595 368.794 360.101C369.694 358.607 370.949 357.447 372.56 356.622C374.17 355.796 375.957 355.384 377.922 355.384ZM372.723 365.228C372.723 367.139 373.191 368.663 374.125 369.803C375.06 370.942 376.312 371.512 377.881 371.512C379.518 371.512 380.808 370.966 381.749 369.874C382.691 368.783 383.161 367.22 383.161 365.187C383.161 363.25 382.687 361.752 381.739 360.695C380.791 359.637 379.505 359.109 377.881 359.109C376.353 359.109 375.111 359.668 374.156 360.787C373.201 361.906 372.723 363.386 372.723 365.228Z" fill="#e5e5e5" fill-rule="nonzero" opacity="1" stroke="none"/>
<path d="M397.509 355.752L397.509 363.223L405.757 363.223L405.757 355.752L410.792 355.752L410.792 374.868L405.757 374.868L405.757 367.07L397.509 367.07L397.509 374.868L392.474 374.868L392.474 355.752L397.509 355.752Z" fill="#e5e5e5" fill-rule="nonzero" opacity="1" stroke="none"/>
<path d="M432.385 355.752L432.385 359.62L425.63 359.62L425.63 374.868L420.596 374.868L420.596 359.62L413.862 359.62L413.862 355.752L432.385 355.752Z" fill="#e5e5e5" fill-rule="nonzero" opacity="1" stroke="none"/>
<path d="M442.332 355.384C444.788 355.384 446.664 355.906 447.96 356.949C449.256 357.993 449.904 359.45 449.904 361.319L449.904 370.673C449.904 371.396 450.198 371.757 450.784 371.757C451.03 371.757 451.375 371.652 451.818 371.44C452.261 371.229 452.633 370.986 452.933 370.714L452.933 373.62C451.173 374.698 449.563 375.237 448.103 375.237C447.203 375.237 446.51 375.087 446.026 374.786C445.541 374.486 445.204 373.954 445.013 373.19C443.089 374.554 441.158 375.237 439.221 375.237C437.842 375.237 436.659 374.773 435.67 373.845C434.68 372.917 434.186 371.805 434.186 370.509C434.186 368.858 434.677 367.555 435.659 366.6C436.642 365.645 438.361 364.812 440.817 364.103L444.89 362.916L444.89 362.036C444.89 360.166 443.757 359.232 441.492 359.232C440.333 359.232 439.18 359.498 438.033 360.03C436.887 360.562 435.843 361.346 434.902 362.383L434.902 357.86C436.99 356.209 439.466 355.384 442.332 355.384ZM439.261 369.752C439.261 370.447 439.483 371.007 439.927 371.43C440.37 371.853 440.919 372.064 441.574 372.064C442.679 372.064 443.785 371.559 444.89 370.55L444.89 365.515C443.484 365.992 442.383 366.443 441.584 366.866C440.786 367.289 440.2 367.719 439.824 368.155C439.449 368.592 439.261 369.124 439.261 369.752Z" fill="#e5e5e5" fill-rule="nonzero" opacity="1" stroke="none"/>
<path d="M454.018 355.67C454.605 355.561 455.123 355.507 455.574 355.507C456.788 355.507 457.757 355.732 458.48 356.182C459.203 356.632 459.858 357.396 460.445 358.474C460.841 359.238 461.199 359.924 461.519 360.531C461.84 361.138 462.174 361.657 462.522 362.087C462.87 362.516 463.269 362.847 463.72 363.079C464.17 363.311 464.722 363.427 465.377 363.427L465.377 355.752L470.208 355.752L470.208 363.427C471.108 363.427 471.835 363.209 472.387 362.772C472.94 362.336 473.428 361.729 473.851 360.951L475.017 358.74C475.631 357.567 476.29 356.735 476.992 356.243C477.695 355.752 478.688 355.507 479.97 355.507C480.448 355.507 480.98 355.561 481.567 355.67L481.567 359.232L480.932 359.232C480.468 359.232 480.062 359.324 479.714 359.508C479.367 359.692 479.049 360.064 478.763 360.623L477.801 362.465C477.446 363.148 477.057 363.683 476.634 364.072C476.211 364.461 475.672 364.792 475.017 365.065C476.559 365.515 478.012 366.982 479.377 369.465L482.324 374.868L477.084 374.868L475.161 371.021C474.396 369.506 473.653 368.414 472.93 367.746C472.207 367.077 471.299 366.743 470.208 366.743L470.208 374.868L465.377 374.868L465.377 366.743L465.255 366.743C464.258 366.77 463.413 367.087 462.717 367.695C462.021 368.302 461.263 369.41 460.445 371.021L458.5 374.868L453.261 374.868L456.085 369.711C456.89 368.264 457.627 367.19 458.296 366.487C458.964 365.784 459.722 365.31 460.568 365.065C459.421 364.601 458.5 363.734 457.805 362.465L456.802 360.623C456.488 360.05 456.174 359.675 455.86 359.498C455.546 359.32 455.13 359.232 454.612 359.232L454.018 359.232L454.018 355.67Z" fill="#e5e5e5" fill-rule="nonzero" opacity="1" stroke="none"/>
</g>
</g>
</svg>
