<svg xmlns="http://www.w3.org/2000/svg" version="1.1" xmlns:xlink="http://www.w3.org/1999/xlink" width="1000" height="1000"><metadata><rdf:RDF xmlns:rdf="http://www.w3.org/1999/02/22-rdf-syntax-ns#" xmlns:dc="http://purl.org/dc/elements/1.1/"><rdf:Description><dc:creator>RealFaviconGenerator</dc:creator><dc:source>https://realfavicongenerator.net</dc:source></rdf:Description></rdf:RDF></metadata><g clip-path="url(#SvgjsClipPath1134)"><rect width="1000" height="1000" fill="#ffffff"></rect><g transform="matrix(1.953125,0,0,1.953125,0,0)"><svg xmlns="http://www.w3.org/2000/svg" version="1.1" xmlns:xlink="http://www.w3.org/1999/xlink" height="512.0000000000001px" stroke-miterlimit="10" style="fill-rule:nonzero;clip-rule:evenodd;stroke-linecap:round;stroke-linejoin:round;" viewBox="0 0 512 512" width="512.0px" xml:space="preserve"><defs><clipPath id="SvgjsClipPath1134"><rect width="1000" height="1000" x="0" y="0" rx="0" ry="0"></rect></clipPath></defs><g id="Слой-1">
<path d="M17.3779 73.2202C17.3779 42.3793 42.3793 17.3779 73.2202 17.3779L438.78 17.3779C469.621 17.3779 494.622 42.3793 494.622 73.2202L494.622 438.78C494.622 469.621 469.621 494.622 438.78 494.622L73.2202 494.622C42.3793 494.622 17.3779 469.621 17.3779 438.78L17.3779 73.2202Z" fill="#ff6500" fill-rule="nonzero" opacity="1" stroke="none"></path>
<g opacity="1">
<path d="M257.137 126.748L302.502 143.71L302.502 265.04L257.137 265.04L257.137 126.748Z" fill="#b2b2b2" fill-rule="nonzero" opacity="1" stroke="none"></path>
<path d="M306.657 146.601L329.47 153.888L329.47 265.04L306.657 265.04L306.657 146.601Z" fill="#9a989a" fill-rule="nonzero" opacity="1" stroke="none"></path>
<path d="M333.485 156.239L346.245 161.059L346.245 265.04L333.485 265.04L333.485 156.239Z" fill="#847c7b" fill-rule="nonzero" opacity="1" stroke="none"></path>
<path d="M163.688 160.89L252.78 126.748L252.938 265.04L163.688 265.04L163.688 160.89Z" fill="#cccccc" fill-rule="nonzero" opacity="1" stroke="none"></path>
</g>
<g opacity="1">
<path d="M334.641 301.246L307.985 327.528L317.829 327.528L326.735 327.528L351.985 327.528L351.985 332.403L366.36 332.403L366.36 327.528L369.829 327.528L369.829 318.715L366.36 318.715L366.36 309.996L351.985 309.996L351.985 318.715L335.266 318.715L352.204 301.246L334.641 301.246Z" fill="#e5e5e5" fill-rule="nonzero" opacity="1" stroke="none"></path>
<path d="M91.2351 301.309C91.2351 301.309 87.6343 301.594 84.8601 303.121C82.086 304.649 80.1414 307.403 80.1414 307.403L73.3914 321.871L68.5164 321.871L68.5164 336.09L82.6101 335.965L82.6101 332.965L123.391 332.965L123.391 336.09L137.735 336.09L137.735 321.871L133.86 321.871L133.735 301.309L91.2351 301.309ZM108.516 311.903C114.424 311.893 119.985 311.996 119.985 311.996L119.985 321.715L89.1726 321.715C89.1726 321.715 92.2452 313.267 94.9851 312.434C96.3551 312.017 102.609 311.913 108.516 311.903Z" fill="#e5e5e5" fill-rule="nonzero" opacity="1" stroke="none"></path>
<path d="M163.455 301.309C154.759 301.309 147.705 308.362 147.705 317.059C147.705 325.756 154.759 332.809 163.455 332.809L196.268 332.809C204.965 332.809 212.018 325.756 212.018 317.059C212.018 308.362 204.965 301.309 196.268 301.309L163.455 301.309ZM166.393 312.715L193.299 312.715C195.702 312.715 197.674 314.656 197.674 317.059C197.674 319.462 195.702 321.403 193.299 321.403L166.393 321.403C163.99 321.403 162.049 319.462 162.049 317.059C162.049 314.656 163.99 312.715 166.393 312.715Z" fill="#e5e5e5" fill-rule="nonzero" opacity="1" stroke="none"></path>
<path d="M237.194 332.416L223.139 332.34L223.139 301.251L242.082 301.251L259.766 322.41L277.028 301.309L296.812 301.251L296.812 332.416L282.724 332.416L282.724 314.389L267.824 332.416L251.232 332.416L237.194 315.306L237.194 332.416Z" fill="#e5e5e5" fill-rule="nonzero" opacity="1" stroke="none"></path>
<path d="M383.125 308.869L383.125 301.246L432.253 301.246C432.253 301.246 441.417 302.584 441.416 311.133C441.416 319.683 432.253 320.544 432.253 320.544L397.091 321.102C397.091 321.102 395.724 321.102 395.579 322.034C395.433 322.966 395.579 324.54 395.579 324.54L439.28 324.54L439.28 332.403L381.189 332.403L381.73 322.034C381.73 322.034 382.162 317.927 385.151 315.356C388.14 312.785 391.562 312.785 391.562 312.785L426.232 312.708C426.232 312.708 426.879 312.429 426.879 310.76C426.879 309.09 425.926 308.869 425.926 308.869L383.125 308.869Z" fill="#e5e5e5" fill-rule="nonzero" opacity="1" stroke="none"></path>
</g>
<g opacity="1">
<path d="M48.741 356.496L48.741 375.612L43.7061 375.612L43.7061 360.364L35.7444 360.364L35.7444 375.612L30.7096 375.612L30.7096 356.496L48.741 356.496Z" fill="#e5e5e5" fill-rule="nonzero" opacity="1" stroke="none"></path>
<path d="M63.6 356.127C66.3289 356.127 68.5291 357.042 70.2006 358.87C71.8721 360.698 72.7078 363.079 72.7078 366.013C72.7078 367.937 72.3155 369.656 71.531 371.171C70.7464 372.685 69.631 373.865 68.1846 374.711C66.7383 375.557 65.1009 375.98 63.2725 375.98C61.7853 375.98 60.2912 375.605 58.7903 374.855L58.7903 385.252L53.7554 385.252L53.7554 356.496L58.7493 356.496L58.7493 357.724C60.2639 356.66 61.8808 356.127 63.6 356.127ZM58.7903 371.171C60.0456 371.894 61.219 372.255 62.3106 372.255C63.8934 372.255 65.1623 371.689 66.1175 370.557C67.0726 369.424 67.5501 367.964 67.5501 366.177C67.5501 364.225 67.1237 362.697 66.271 361.592C65.4182 360.487 64.2072 359.934 62.6381 359.934C62.0513 359.934 61.4851 360.033 60.9393 360.231C60.3935 360.429 59.6772 360.848 58.7903 361.49L58.7903 371.171Z" fill="#e5e5e5" fill-rule="nonzero" opacity="1" stroke="none"></path>
<path d="M86.1956 356.127C88.1877 356.127 89.9956 356.544 91.6193 357.376C93.243 358.208 94.4984 359.375 95.3853 360.876C96.2722 362.377 96.7156 364.075 96.7156 365.972C96.7156 367.95 96.2892 369.683 95.4364 371.171C94.5836 372.658 93.3283 373.831 91.6705 374.691C90.0127 375.551 88.1877 375.98 86.1956 375.98C84.1898 375.98 82.3682 375.551 80.7309 374.691C79.0935 373.831 77.8485 372.658 76.9957 371.171C76.1429 369.683 75.7165 367.95 75.7165 365.972C75.7165 364.048 76.1667 362.339 77.0673 360.845C77.9678 359.351 79.2232 358.191 80.8332 357.366C82.4433 356.54 84.2307 356.127 86.1956 356.127ZM80.997 365.972C80.997 367.882 81.4643 369.407 82.3989 370.546C83.3336 371.686 84.5855 372.255 86.1546 372.255C87.792 372.255 89.0814 371.71 90.0229 370.618C90.9644 369.526 91.4351 367.964 91.4351 365.931C91.4351 363.994 90.961 362.496 90.0127 361.439C89.0644 360.381 87.7784 359.852 86.1546 359.852C84.6264 359.852 83.3848 360.412 82.4297 361.531C81.4745 362.65 80.997 364.13 80.997 365.972Z" fill="#e5e5e5" fill-rule="nonzero" opacity="1" stroke="none"></path>
<path d="M105.516 356.496L105.516 368.285L115.955 356.496L118.636 356.496L118.636 375.612L113.867 375.612L113.867 364.294L103.347 375.817L100.748 375.817L100.748 356.496L105.516 356.496Z" fill="#e5e5e5" fill-rule="nonzero" opacity="1" stroke="none"></path>
<path d="M130.159 356.127C131.864 356.127 133.297 356.342 134.457 356.772C135.617 357.202 136.49 357.785 137.077 358.522C137.663 359.259 137.957 360.118 137.957 361.101C137.957 362.138 137.598 363.059 136.882 363.864C136.166 364.669 135.214 365.201 134.027 365.46C135.35 365.788 136.401 366.371 137.179 367.21C137.957 368.049 138.345 369.049 138.345 370.209C138.345 372.105 137.561 373.548 135.992 374.537C134.423 375.527 132.185 376.021 129.279 376.021C128.023 376.021 126.761 375.881 125.492 375.602C124.223 375.322 123.254 374.977 122.586 374.568L122.586 370.782C124.728 371.928 126.877 372.501 129.033 372.501C130.329 372.501 131.353 372.283 132.103 371.846C132.854 371.409 133.229 370.748 133.229 369.861C133.229 369.165 132.874 368.609 132.164 368.193C131.455 367.777 130.438 367.568 129.115 367.568L126.945 367.568L126.945 364.212L128.787 364.212C130.138 364.212 131.158 364.021 131.847 363.639C132.536 363.257 132.881 362.636 132.881 361.776C132.881 360.385 131.598 359.689 129.033 359.689C127.996 359.689 126.904 359.828 125.758 360.108C124.612 360.388 123.65 360.719 122.872 361.101L122.872 357.724C123.773 357.26 124.916 356.878 126.301 356.578C127.686 356.277 128.972 356.127 130.159 356.127Z" fill="#e5e5e5" fill-rule="nonzero" opacity="1" stroke="none"></path>
<path d="M150.871 356.496C152.932 356.496 154.607 356.939 155.896 357.826C157.185 358.713 157.83 359.88 157.83 361.326C157.83 362.349 157.537 363.246 156.95 364.017C156.363 364.788 155.579 365.344 154.596 365.685C157.08 366.463 158.321 367.916 158.321 370.045C158.321 371.751 157.765 373.105 156.653 374.108C155.541 375.111 154.003 375.612 152.038 375.612L142.111 375.612L142.111 356.496L150.871 356.496ZM149.48 364.498C150.585 364.498 151.407 364.297 151.946 363.895C152.485 363.492 152.754 362.827 152.754 361.899C152.754 361.149 152.447 360.593 151.833 360.231C151.219 359.869 150.38 359.689 149.316 359.689L147.003 359.689L147.003 364.498L149.48 364.498ZM150.278 372.501C152.379 372.501 153.43 371.621 153.43 369.861C153.43 369.11 153.112 368.527 152.478 368.111C151.843 367.695 150.905 367.487 149.664 367.487L147.003 367.487L147.003 372.501L150.278 372.501Z" fill="#e5e5e5" fill-rule="nonzero" opacity="1" stroke="none"></path>
<path d="M171.87 356.127C173.863 356.127 175.67 356.544 177.294 357.376C178.918 358.208 180.173 359.375 181.06 360.876C181.947 362.377 182.39 364.075 182.39 365.972C182.39 367.95 181.964 369.683 181.111 371.171C180.258 372.658 179.003 373.831 177.345 374.691C175.688 375.551 173.863 375.98 171.87 375.98C169.865 375.98 168.043 375.551 166.406 374.691C164.768 373.831 163.523 372.658 162.671 371.171C161.818 369.683 161.391 367.95 161.391 365.972C161.391 364.048 161.842 362.339 162.742 360.845C163.643 359.351 164.898 358.191 166.508 357.366C168.118 356.54 169.906 356.127 171.87 356.127ZM166.672 365.972C166.672 367.882 167.139 369.407 168.074 370.546C169.008 371.686 170.26 372.255 171.829 372.255C173.467 372.255 174.756 371.71 175.698 370.618C176.639 369.526 177.11 367.964 177.11 365.931C177.11 363.994 176.636 362.496 175.688 361.439C174.739 360.381 173.453 359.852 171.829 359.852C170.301 359.852 169.06 360.412 168.104 361.531C167.149 362.65 166.672 364.13 166.672 365.972Z" fill="#e5e5e5" fill-rule="nonzero" opacity="1" stroke="none"></path>
<path d="M193.872 356.127L197.904 356.127L204.863 371.764L206.951 371.764L206.951 380.688L202.182 380.688L202.182 375.612L189.349 375.612L189.349 380.688L184.499 380.688L184.499 371.764L186.586 371.764L193.872 356.127ZM191.498 371.764L199.951 371.764L195.735 361.899L191.498 371.764Z" fill="#e5e5e5" fill-rule="nonzero" opacity="1" stroke="none"></path>
<path d="M219.354 356.127C221.578 356.127 223.591 356.557 225.392 357.417L225.392 361.694C223.604 360.657 221.912 360.139 220.316 360.139C218.597 360.139 217.191 360.674 216.1 361.746C215.008 362.817 214.462 364.266 214.462 366.095C214.462 367.882 215.011 369.322 216.11 370.413C217.208 371.505 218.672 372.051 220.5 372.051C221.864 372.051 223.611 371.6 225.74 370.7L225.74 374.773C223.761 375.578 221.721 375.98 219.62 375.98C216.523 375.98 214.009 375.093 212.078 373.32C210.147 371.546 209.182 369.192 209.182 366.259C209.182 363.216 210.127 360.767 212.016 358.911C213.906 357.055 216.352 356.127 219.354 356.127Z" fill="#e5e5e5" fill-rule="nonzero" opacity="1" stroke="none"></path>
<path d="M246.145 356.496L246.145 360.364L239.391 360.364L239.391 375.612L234.356 375.612L234.356 360.364L227.623 360.364L227.623 356.496L246.145 356.496Z" fill="#e5e5e5" fill-rule="nonzero" opacity="1" stroke="none"></path>
<path d="M258.016 356.496C260.076 356.496 261.751 356.939 263.041 357.826C264.33 358.713 264.975 359.88 264.975 361.326C264.975 362.349 264.681 363.246 264.095 364.017C263.508 364.788 262.723 365.344 261.741 365.685C264.224 366.463 265.466 367.916 265.466 370.045C265.466 371.751 264.91 373.105 263.798 374.108C262.686 375.111 261.147 375.612 259.183 375.612L249.256 375.612L249.256 356.496L258.016 356.496ZM256.624 364.498C257.729 364.498 258.552 364.297 259.091 363.895C259.629 363.492 259.899 362.827 259.899 361.899C259.899 361.149 259.592 360.593 258.978 360.231C258.364 359.869 257.525 359.689 256.461 359.689L254.148 359.689L254.148 364.498L256.624 364.498ZM257.422 372.501C259.524 372.501 260.574 371.621 260.574 369.861C260.574 369.11 260.257 368.527 259.623 368.111C258.988 367.695 258.05 367.487 256.808 367.487L254.148 367.487L254.148 372.501L257.422 372.501Z" fill="#e5e5e5" fill-rule="nonzero" opacity="1" stroke="none"></path>
<path d="M279.015 356.127C281.007 356.127 282.815 356.544 284.439 357.376C286.063 358.208 287.318 359.375 288.205 360.876C289.092 362.377 289.535 364.075 289.535 365.972C289.535 367.95 289.109 369.683 288.256 371.171C287.403 372.658 286.148 373.831 284.49 374.691C282.832 375.551 281.007 375.98 279.015 375.98C277.009 375.98 275.188 375.551 273.55 374.691C271.913 373.831 270.668 372.658 269.815 371.171C268.962 369.683 268.536 367.95 268.536 365.972C268.536 364.048 268.986 362.339 269.887 360.845C270.787 359.351 272.043 358.191 273.653 357.366C275.263 356.54 277.05 356.127 279.015 356.127ZM273.817 365.972C273.817 367.882 274.284 369.407 275.219 370.546C276.153 371.686 277.405 372.255 278.974 372.255C280.612 372.255 281.901 371.71 282.842 370.618C283.784 369.526 284.255 367.964 284.255 365.931C284.255 363.994 283.781 362.496 282.832 361.439C281.884 360.381 280.598 359.852 278.974 359.852C277.446 359.852 276.204 360.412 275.249 361.531C274.294 362.65 273.817 364.13 273.817 365.972Z" fill="#e5e5e5" fill-rule="nonzero" opacity="1" stroke="none"></path>
<path d="M309.982 356.496L309.982 368.285L320.42 356.496L323.101 356.496L323.101 375.612L318.332 375.612L318.332 364.294L307.812 375.817L305.213 375.817L305.213 356.496L309.982 356.496Z" fill="#e5e5e5" fill-rule="nonzero" opacity="1" stroke="none"></path>
<path d="M345.103 356.496L351.264 367.18L357.383 356.496L361.743 356.496L363.094 375.612L358.55 375.612L357.588 363.843L351.141 375.612L344.55 363.741L343.67 375.612L339.147 375.612L340.58 356.496L345.103 356.496Z" fill="#e5e5e5" fill-rule="nonzero" opacity="1" stroke="none"></path>
<path d="M376.888 356.127C378.88 356.127 380.688 356.544 382.312 357.376C383.936 358.208 385.191 359.375 386.078 360.876C386.965 362.377 387.408 364.075 387.408 365.972C387.408 367.95 386.982 369.683 386.129 371.171C385.276 372.658 384.021 373.831 382.363 374.691C380.705 375.551 378.88 375.98 376.888 375.98C374.883 375.98 373.061 375.551 371.424 374.691C369.786 373.831 368.541 372.658 367.688 371.171C366.836 369.683 366.409 367.95 366.409 365.972C366.409 364.048 366.859 362.339 367.76 360.845C368.661 359.351 369.916 358.191 371.526 357.366C373.136 356.54 374.923 356.127 376.888 356.127ZM371.69 365.972C371.69 367.882 372.157 369.407 373.092 370.546C374.026 371.686 375.278 372.255 376.847 372.255C378.485 372.255 379.774 371.71 380.716 370.618C381.657 369.526 382.128 367.964 382.128 365.931C382.128 363.994 381.654 362.496 380.705 361.439C379.757 360.381 378.471 359.852 376.847 359.852C375.319 359.852 374.078 360.412 373.122 361.531C372.167 362.65 371.69 364.13 371.69 365.972Z" fill="#e5e5e5" fill-rule="nonzero" opacity="1" stroke="none"></path>
<path d="M396.475 356.496L396.475 363.966L404.723 363.966L404.723 356.496L409.758 356.496L409.758 375.612L404.723 375.612L404.723 367.814L396.475 367.814L396.475 375.612L391.44 375.612L391.44 356.496L396.475 356.496Z" fill="#e5e5e5" fill-rule="nonzero" opacity="1" stroke="none"></path>
<path d="M431.351 356.496L431.351 360.364L424.597 360.364L424.597 375.612L419.562 375.612L419.562 360.364L412.828 360.364L412.828 356.496L431.351 356.496Z" fill="#e5e5e5" fill-rule="nonzero" opacity="1" stroke="none"></path>
<path d="M441.298 356.127C443.754 356.127 445.63 356.649 446.926 357.693C448.223 358.737 448.871 360.193 448.871 362.063L448.871 371.416C448.871 372.139 449.164 372.501 449.751 372.501C449.996 372.501 450.341 372.395 450.784 372.184C451.228 371.972 451.6 371.73 451.9 371.457L451.9 374.363C450.14 375.441 448.53 375.98 447.07 375.98C446.169 375.98 445.477 375.83 444.992 375.53C444.508 375.23 444.17 374.698 443.979 373.934C442.055 375.298 440.124 375.98 438.187 375.98C436.809 375.98 435.625 375.516 434.636 374.589C433.647 373.661 433.152 372.549 433.152 371.252C433.152 369.601 433.643 368.298 434.626 367.343C435.608 366.388 437.327 365.556 439.783 364.846L443.856 363.659L443.856 362.779C443.856 360.91 442.724 359.975 440.459 359.975C439.299 359.975 438.146 360.241 437 360.773C435.854 361.306 434.81 362.09 433.868 363.127L433.868 358.604C435.956 356.953 438.433 356.127 441.298 356.127ZM438.228 370.495C438.228 371.191 438.45 371.751 438.893 372.174C439.337 372.596 439.886 372.808 440.541 372.808C441.646 372.808 442.751 372.303 443.856 371.293L443.856 366.259C442.451 366.736 441.349 367.186 440.551 367.609C439.753 368.032 439.166 368.462 438.791 368.899C438.416 369.335 438.228 369.868 438.228 370.495Z" fill="#e5e5e5" fill-rule="nonzero" opacity="1" stroke="none"></path>
<path d="M452.985 356.414C453.571 356.305 454.09 356.25 454.54 356.25C455.754 356.25 456.723 356.475 457.446 356.926C458.17 357.376 458.825 358.14 459.411 359.218C459.807 359.982 460.165 360.668 460.486 361.275C460.806 361.882 461.141 362.401 461.489 362.83C461.837 363.26 462.236 363.591 462.686 363.823C463.136 364.055 463.689 364.171 464.344 364.171L464.344 356.496L469.174 356.496L469.174 364.171C470.075 364.171 470.801 363.953 471.354 363.516C471.906 363.079 472.394 362.472 472.817 361.694L473.984 359.484C474.598 358.311 475.256 357.478 475.959 356.987C476.661 356.496 477.654 356.25 478.937 356.25C479.414 356.25 479.946 356.305 480.533 356.414L480.533 359.975L479.899 359.975C479.435 359.975 479.029 360.067 478.681 360.251C478.333 360.436 478.016 360.807 477.729 361.367L476.767 363.209C476.412 363.891 476.024 364.427 475.601 364.816C475.178 365.204 474.639 365.535 473.984 365.808C475.526 366.259 476.979 367.725 478.343 370.209L481.29 375.612L476.051 375.612L474.127 371.764C473.363 370.25 472.619 369.158 471.896 368.489C471.173 367.821 470.266 367.487 469.174 367.487L469.174 375.612L464.344 375.612L464.344 367.487L464.221 367.487C463.225 367.514 462.379 367.831 461.683 368.438C460.987 369.045 460.23 370.154 459.411 371.764L457.467 375.612L452.227 375.612L455.052 370.454C455.857 369.008 456.594 367.933 457.262 367.231C457.931 366.528 458.688 366.054 459.534 365.808C458.388 365.344 457.467 364.478 456.771 363.209L455.768 361.367C455.454 360.794 455.14 360.419 454.827 360.241C454.513 360.064 454.097 359.975 453.578 359.975L452.985 359.975L452.985 356.414Z" fill="#e5e5e5" fill-rule="nonzero" opacity="1" stroke="none"></path>
</g>
</g></svg></g></g></svg>