<svg xmlns="http://www.w3.org/2000/svg" version="1.1" xmlns:xlink="http://www.w3.org/1999/xlink" width="1000" height="1000"><metadata><rdf:RDF xmlns:rdf="http://www.w3.org/1999/02/22-rdf-syntax-ns#" xmlns:dc="http://purl.org/dc/elements/1.1/"><rdf:Description><dc:creator>RealFaviconGenerator</dc:creator><dc:source>https://realfavicongenerator.net</dc:source></rdf:Description></rdf:RDF></metadata><style>
    #light-icon {
      display: inline;
    }
    #dark-icon {
      display: none;
    }

    @media (prefers-color-scheme: dark) {
      #light-icon {
        display: none;
      }
      #dark-icon {
        display: inline;
      }
    }
  </style><g id="light-icon"><svg xmlns="http://www.w3.org/2000/svg" version="1.1" xmlns:xlink="http://www.w3.org/1999/xlink" width="1000" height="1000"><g clip-path="url(#SvgjsClipPath1228)"><rect width="1000" height="1000" fill="#ff6500"></rect><g transform="matrix(1.953125,0,0,1.953125,0,0)"><svg xmlns="http://www.w3.org/2000/svg" version="1.1" xmlns:xlink="http://www.w3.org/1999/xlink" height="512.0px" stroke-miterlimit="10" style="fill-rule:nonzero;clip-rule:evenodd;stroke-linecap:round;stroke-linejoin:round;" viewBox="0 0 512 512" width="512.0px" xml:space="preserve"><defs><clipPath id="SvgjsClipPath1228"><rect width="1000" height="1000" x="0" y="0" rx="0" ry="0"></rect></clipPath></defs><g id="Слой-1">
<path d="M17.3779 73.2202C17.3779 42.3793 42.3793 17.3779 73.2202 17.3779L438.78 17.3779C469.621 17.3779 494.622 42.3793 494.622 73.2202L494.622 438.78C494.622 469.621 469.621 494.622 438.78 494.622L73.2202 494.622C42.3793 494.622 17.3779 469.621 17.3779 438.78L17.3779 73.2202Z" fill="#ff6500" fill-rule="nonzero" opacity="1" stroke="none"></path>
<g opacity="1">
<path d="M260.262 120.255L349.321 153.553L349.321 391.745L260.262 391.745L260.262 120.255Z" fill="#b2b2b2" fill-rule="nonzero" opacity="1" stroke="none"></path>
<path d="M357.478 159.229L402.263 173.535L402.263 391.745L357.478 391.745L357.478 159.229Z" fill="#9a989a" fill-rule="nonzero" opacity="1" stroke="none"></path>
<path d="M410.145 178.151L435.196 187.614L435.196 391.745L410.145 391.745L410.145 178.151Z" fill="#847c7b" fill-rule="nonzero" opacity="1" stroke="none"></path>
<path d="M76.8044 187.282L251.708 120.255L252.018 391.745L76.8044 391.745L76.8044 187.282Z" fill="#cccccc" fill-rule="nonzero" opacity="1" stroke="none"></path>
</g>
</g></svg></g></g></svg></g><g id="dark-icon"><svg xmlns="http://www.w3.org/2000/svg" version="1.1" xmlns:xlink="http://www.w3.org/1999/xlink" width="1000" height="1000"><g clip-path="url(#SvgjsClipPath1229)"><rect width="1000" height="1000" fill="#ff6500"></rect><g transform="matrix(1.953125,0,0,1.953125,0,0)"><svg xmlns="http://www.w3.org/2000/svg" version="1.1" xmlns:xlink="http://www.w3.org/1999/xlink" height="512.0px" stroke-miterlimit="10" style="fill-rule:nonzero;clip-rule:evenodd;stroke-linecap:round;stroke-linejoin:round;" viewBox="0 0 512 512" width="512.0px" xml:space="preserve"><defs><clipPath id="SvgjsClipPath1229"><rect width="1000" height="1000" x="0" y="0" rx="500" ry="500"></rect></clipPath></defs><g id="Слой-1">
<path d="M17.3779 73.2202C17.3779 42.3793 42.3793 17.3779 73.2202 17.3779L438.78 17.3779C469.621 17.3779 494.622 42.3793 494.622 73.2202L494.622 438.78C494.622 469.621 469.621 494.622 438.78 494.622L73.2202 494.622C42.3793 494.622 17.3779 469.621 17.3779 438.78L17.3779 73.2202Z" fill="#ff6500" fill-rule="nonzero" opacity="1" stroke="none"></path>
<g opacity="1">
<path d="M260.262 120.255L349.321 153.553L349.321 391.745L260.262 391.745L260.262 120.255Z" fill="#b2b2b2" fill-rule="nonzero" opacity="1" stroke="none"></path>
<path d="M357.478 159.229L402.263 173.535L402.263 391.745L357.478 391.745L357.478 159.229Z" fill="#9a989a" fill-rule="nonzero" opacity="1" stroke="none"></path>
<path d="M410.145 178.151L435.196 187.614L435.196 391.745L410.145 391.745L410.145 178.151Z" fill="#847c7b" fill-rule="nonzero" opacity="1" stroke="none"></path>
<path d="M76.8044 187.282L251.708 120.255L252.018 391.745L76.8044 391.745L76.8044 187.282Z" fill="#cccccc" fill-rule="nonzero" opacity="1" stroke="none"></path>
</g>
</g></svg></g></g></svg></g></svg>